HIERARCHY
ROOT hip
{
  OFFSET 0.0 0.0 0.0
  CHANNELS 6 Xposition Yposition Zposition Zrotation Yrotation Xrotation
  JOINT torso
  {
    OFFSET 0.0 0.0 0.0
    CHANNELS 3 Zrotation Xrotation Yrotation
    JOINT neck
    {
      OFFSET -8.059630999999968 325.56260699999996 64.6221310000002
      CHANNELS 3 Zrotation Xrotation Yrotation
      JOINT head
      {
        OFFSET 34.685424000000125 375.1179809999999 232.79357900000002
        CHANNELS 3 Zrotation Xrotation Yrotation
        End Site
        {
          OFFSET 0.0 0.0 0.0
        }
      }
    }
    JOINT left_collar
    {
      OFFSET -8.059630999999968 325.56260699999996 64.6221310000002
      CHANNELS 3 Zrotation Xrotation Yrotation
      JOINT left_upper_arm
      {
        OFFSET -124.124665 -15.370300999999927 25.582641999999964
        CHANNELS 3 Zrotation Xrotation Yrotation
        JOINT left_forearm
        {
          OFFSET -268.19913399999996 105.06054699999993 114.74548300000004
          CHANNELS 3 Zrotation Xrotation Yrotation
          JOINT left_hand
          {
            OFFSET -235.82003099999991 -10.198180999999977 -38.67455999999993
            CHANNELS 3 Zrotation Xrotation Yrotation
            End Site
            {
              OFFSET 0.0 0.0 0.0
            }
          }
        }
      }
    }
    JOINT right_collar
    {
      OFFSET -8.059630999999968 325.56260699999996 64.6221310000002
      CHANNELS 3 Zrotation Xrotation Yrotation
      JOINT right_upper_arm
      {
        OFFSET 162.73931899999997 -2.8598030000000563 26.244994999999903
        CHANNELS 3 Zrotation Xrotation Yrotation
        JOINT right_forearm
        {
          OFFSET 284.6506340000001 103.07031299999994 145.84521499999994
          CHANNELS 3 Zrotation Xrotation Yrotation
          JOINT right_hand
          {
            OFFSET 226.332337 -12.198241999999937 -49.27258299999994
            CHANNELS 3 Zrotation Xrotation Yrotation
            End Site
            {
              OFFSET 0.0 0.0 0.0
            }
          }
        }
      }
    }
  }
}
MOTION
Frames: 14
Frame Time: 0.01
394.92436381381276 222.74836583964512 744.0728390268987 1.000379115610794 0.4773144512199984 -3.376281660137234 0.16408758060097275 -1.1457086246177914 -0.06245338947079546 0.11368541502502628 -1.9050673401824918 0.10265834268683635 0.0 0.0 0.0 0.823274283659428 -0.06918913843352296 1.8243673378642413 -2.2716081667034524 2.296992536096268 8.055356179006656 0.1811858554638642 -0.06838285398979409 0.860617044489676 0.0 0.0 0.0 -0.439684376357455 0.1504455398410239 3.6768684298003502 6.950648769381797 -2.382562865993994 -2.848782705684582 -11.296025122813306 -4.238992206018063 -10.85451390523453 0.0 0.0 0.0
394.90672629293283 222.69173191309915 743.870524156292 1.002700052913973 0.4651663500743579 -3.376310200669768 0.16320398124124816 -1.1472136758689917 -0.062308679782159156 0.12207266479785271 -1.909446833891916 0.09776225140380426 0.0 0.0 0.0 0.8249277545142559 -0.06839443605876068 1.8206843275828153 -2.266568749288119 2.293959898058853 8.043344266037748 0.19878690258368448 -0.07185108247479728 0.8704752847692809 0.0 0.0 0.0 -0.4428882233650585 0.15085587775999018 3.6671132798812507 6.954050028069366 -2.3836391726751422 -2.8502192276612264 -11.336366718005783 -4.248009204591081 -10.829765567088284 0.0 0.0 0.0
394.89390781308293 222.6352782945702 743.6701853032662 1.004910860786027 0.45243276374433944 -3.377728904952516 0.16226069419143196 -1.1489041685287982 -0.062156349681471317 0.13025718250654775 -1.9131345575560534 0.09293149932963073 0.0 0.0 0.0 0.8266991795442579 -0.06764875033395062 1.8175487203607816 -2.262104792148854 2.2902842801131436 8.030203280421665 0.22036207535802704 -0.07629256875597588 0.8866579203494545 0.0 0.0 0.0 -0.4458812643254836 0.15123163072032683 3.6576753702566327 6.958610912038862 -2.385966025396927 -2.850126538218128 -11.379314043069499 -4.25803965131205 -10.806113223685111 0.0 0.0 0.0
394.88440671075176 222.57779143187128 743.4708027726301 1.007031745355196 0.4387748273290238 -3.3802059807158056 0.16127301023623275 -1.1507467468474082 -0.06199870734799607 0.13823735553609706 -1.9162394732507193 0.08817700012836899 0.0 0.0 0.0 0.8286449429682587 -0.06692264687627461 1.8148169889101082 -2.2577706718136814 2.2863181171662332 8.016438553046635 0.24404751813138903 -0.08130685291547544 0.9072993666391007 0.0 0.0 0.0 -0.448669759640179 0.15156801945688542 3.6482765584237855 6.963635584591854 -2.389026192718823 -2.848890026185946 -11.4225603747096 -4.2682816867788755 -10.78325002944127 0.0 0.0 0.0
394.8763685050154 222.5178804187241 743.2710551755345 1.009092584818864 0.42384720078088006 -3.383336102975446 0.16025650494954866 -1.1527070217878517 -0.061838095019336126 0.14602080607402926 -1.918913592437414 0.08350768435754458 0.0 0.0 0.0 0.830822090176684 -0.06618258424989358 1.8123152409122334 -2.2530228000931687 2.282496703779433 8.002679460565924 0.26756716063295255 -0.08639743816871831 0.9300368972008659 0.0 0.0 0.0 -0.4512684187523369 0.15186116200134478 3.638606156845186 6.968285076046787 -2.392186826251667 -2.846995011341092 -11.463436079390283 -4.277797153509731 -10.760752094624369 0.0 0.0 0.0
394.8675895541751 222.45399245300516 743.069346211229 1.0111338056079053 0.4073082809021155 -3.3866408263441192 0.15922671703667945 -1.1547503411472448 -0.061676842394075296 0.1536246287280122 -1.921353900521555 0.07893051465501513 0.0 0.0 0.0 0.8332860995846261 -0.06539142572643214 1.809839933006483 -2.2472202041026863 2.279338915227409 7.9896815864710025 0.2882359976060867 -0.09097034124902745 0.9520042899003845 0.0 0.0 0.0 -0.4537012050815496 0.15210834879157792 3.6283264751976008 6.971579985643014 -2.394699304566109 -2.8450298312181346 -11.49893320611719 -4.285518353933436 -10.738070906521807 0.0 0.0 0.0
394.8555267206277 222.38442928123905 742.863838285269 1.013207266293244 0.3888295229430496 -3.389570370850391 0.1581987632994905 -1.1568419947419177 -0.061517192003419235 0.16107545834988649 -1.9238035472714357 0.07445054233379268 0.0 0.0 0.0 0.8360887437650281 -0.0645090608953717 1.8071595746302915 -2.239626940287614 2.277445876495933 7.978325604153873 0.302972975363022 -0.09433586872887971 0.9698355274897117 0.0 0.0 0.0 -0.4560020534247125 0.15230831906359688 3.6170792129280858 6.972406013074403 -2.3957009035709147 -2.8436883492628384 -11.5257390767999 -4.290258027820264 -10.714525533347926 0.0 0.0 0.0
394.83731351602717 222.3073638750467 742.6524922476368 1.015377123409448 0.36810344394665195 -3.391506916984509 0.1571869019844923 -1.1589468388848814 -0.06136119861101304 0.16840934516256803 -1.9265521835259811 0.0700710085956028 0.0 0.0 0.0 0.8392761215314034 -0.06349312836444294 1.8040174751376372 -2.229416313064322 2.277497385740966 7.969612553852425 0.30832404167248784 -0.0957145664394413 0.9796791759555323 0.0 0.0 0.0 -0.45821546576168104 0.1524615275425004 3.6044925597615762 6.969522343327983 -2.3942184448222794 -2.8437718074611804 -11.540278937580768 -4.290722687078605 -10.689294035883915 0.0 0.0 0.0
394.8097832398136 222.2208566296739 742.4331124895522 1.0177206474701859 0.3448499601064641 -3.3917695163203803 0.1562040672075909 -1.1610283898327227 -0.06121060868580378 0.1756714179708406 -1.9299353358406384 0.06579349203113616 0.0 0.0 0.0 0.8428869211153959 -0.0622998261437762 1.8001355176259064 -2.215676801982747 2.28024596340402 7.964655304285865 0.30049560774178075 -0.0942482921031065 0.9772237265768204 0.0 0.0 0.0 -0.46039695641300343 0.1525703900295124 3.5901888056883595 6.961572859190678 -2.3891740792242406 -2.846189904648025 -11.538767599425926 -4.2855294136728075 -10.661403440807753 0.0 0.0 0.0
394.7694996465291 222.12287046162422 742.2033966187265 1.0203289580092998 0.3188207951532589 -3.3896207124628317 0.15526139917242957 -1.1630474878399057 -0.061066727765378644 0.18291531580142478 -1.9343327265456696 0.061618105586085575 0.0 0.0 0.0 0.8469509555990217 -0.06088479395629852 1.7952188937788547 -2.1974195368608727 2.2865084754928167 7.964666125321804 0.27539830374451846 -0.08901727694447134 0.9577337993592312 0.0 0.0 0.0 -0.4626133215010538 0.15263949673091917 3.5737922396476836 6.947100102474032 -2.379393358225107 -2.8519609478362438 -11.517269803871534 -4.273226182109665 -10.629717648894811 0.0 0.0 0.0
394.7127956765746 222.0112843148875 741.9609889496425 1.023307650144099 0.28980178896411624 -3.3842749709481015 0.15436779077949264 -1.1649606739751583 -0.06093028371744697 0.1902023631947562 -1.9401654663252788 0.05754375105999055 0.0 0.0 0.0 0.851487996960221 -0.05920405159825709 1.7889617080777993 -2.1735871023646562 2.2971553666901383 7.970940443465031 0.22870050822045415 -0.079063860822193 0.9160967111264445 0.0 0.0 0.0 -0.46494270951186295 0.15267578295323567 3.5549371298455132 6.924561846978079 -2.363615725462437 -2.862210898887362 -11.4717688075884 -4.252315714936082 -10.592922768924243 0.0 0.0 0.0
394.63582075798365 221.8839047624195 741.7035371060975 1.0267772875658083 0.257613034288286 -3.3749090261820194 0.1535294663552903 -1.1667184504924832 -0.06080129363035127 0.1976004551722739 -1.9478920700280447 0.05356844713744554 0.0 0.0 0.0 0.8565069238735749 -0.057214979253319954 1.781053353893497 -2.143063406158059 2.3130976317795326 7.98483699883455 0.15589073089885933 -0.06342330697214546 0.8468785653480446 0.0 0.0 0.0 -0.4674744692011098 0.15268864786757277 3.533275619151739 6.892350081217072 -2.3405075277320995 -2.8781711188948065 -11.398242399363243 -4.221282821268477 -10.549509585133828 0.0 0.0 0.0
394.534597126757 221.73847560370035 741.4287511265723 1.0308737353828603 0.22210687093109072 -3.3606742567165955 0.15274960727332287 -1.1682636110380693 -0.060678942261465627 0.20518260675426864 -1.9580032731282346 0.049689756551051324 0.0 0.0 0.0 0.8620051905547039 -0.05487732881433687 1.7711855742260592 -2.1046843118773735 2.33527174673144 8.007754760295297 0.05234756482891139 -0.04116173583268189 0.744388767229588 0.0 0.0 0.0 -0.4703087496179875 0.15269001339200927 3.5084854213162795 6.848812122890251 -2.30867759437545 -2.9011745917154936 -11.292745254117841 -4.1786251050076055 -10.497753180032435 0.0 0.0 0.0
394.40508550363245 221.57268559157865 741.1344645469023 1.0357483010296296 0.18316386502777393 -3.3407111915046594 0.15202804303453832 -1.1695298283369808 -0.06056148080008467 0.21302511257079604 -1.9710156514599348 0.04590534649326911 0.0 0.0 0.0 0.8679686218655226 -0.052154259183276416 1.7590601453476253 -2.057248722529591 2.364622868006564 8.041107075481774 -0.08658436981140522 -0.01142078020739459 0.6027517279675346 0.0 0.0 0.0 -0.4735558264752702 0.15269431697445549 3.4802772572233187 6.7922734953843795 -2.2666953668391687 -2.9326503829195776 -11.151496194915447 -4.122886857003497 -10.435690137251612 0.0 0.0 0.0
